  0
SECTION
  2
HEADER
  9
$ACADVER
  1
AC1009
  9
$INSUNITS
 70
     1
  0
ENDSEC
  0
SECTION
  2
TABLES
  0
TABLE
  2
LAYER
 70
     8
  0
LAYER
  2
0
 62
     7
 70
0
  6
CONTINUOUS
  0
LAYER
  2
1
 62
     1
 70
0
  6
CONTINUOUS
  0
LAYER
  2
2
 62
     2
 70
0
  6
CONTINUOUS
  0
LAYER
  2
3
 62
     3
 70
0
  6
CONTINUOUS
  0
LAYER
  2
4
 62
     4
 70
0
  6
CONTINUOUS
  0
LAYER
  2
5
 62
     5
 70
0
  6
CONTINUOUS
  0
LAYER
  2
6
 62
     6
 70
0
  6
CONTINUOUS
  0
LAYER
  2
7
 62
     7
 70
0
  6
CONTINUOUS
  0
ENDTAB
  0
TABLE
  2
STYLE
 70
     1
  0
STYLE
 70
     0
  2
STANDARD
  3
TXT
 40
0.00
 41
1.00
 42
1.00
 50
0.00
 71
     0
  0
ENDTAB
  0
ENDSEC
  0
SECTION
  2
BLOCKS
  0
BLOCK
  8
0
  2
EPAD
 70
0
 10
0.0
 20
0.0
  0
POLYLINE
  8
0
 66
1
 70
1
 40
0.5
 41
0.5
  0
VERTEX
  8
0
 10
-0.25
 20
0.0
 42
1.0
  0
VERTEX
  8
0
 10
0.25
 20
0.0
 42
1.0
  0
SEQEND
  8
0
  0
ENDBLK
  8
0
  0
BLOCK
  8
0
  2
RPAD
 70
0
 10
0.0
 20
0.0
  0
TRACE
  8
0
 10
-0.5
 20
-0.5
 11
-0.5
 21
0.5
 12
0.5
 22
-0.5
 13
0.5
 23
0.5
  0
ENDBLK
  8
0
  0
ENDSEC
0
SECTION
2
ENTITIES
0
POLYLINE
8
0
66
1
40
0.030000
41
0.030000
0
VERTEX
8
0
10
0.705827
20
1.003465
0
VERTEX
8
0
10
0.705827
20
1.067835
0
VERTEX
8
0
10
0.655827
20
1.117835
0
VERTEX
8
0
10
0.515276
20
1.117835
0
VERTEX
8
0
10
0.515276
20
1.003465
0
SEQEND
8
0
0
POLYLINE
8
0
66
1
40
0.030000
41
0.030000
0
VERTEX
8
0
10
0.705827
20
0.903465
0
VERTEX
8
0
10
-0.081575
20
0.903465
0
SEQEND
8
0
0
POLYLINE
8
0
66
1
40
0.030000
41
0.030000
0
VERTEX
8
0
10
1.296378
20
1.003465
0
VERTEX
8
0
10
1.005827
20
1.003465
0
SEQEND
8
0
0
POLYLINE
8
0
66
1
40
0.030000
41
0.030000
0
VERTEX
8
0
10
1.005827
20
0.803465
0
VERTEX
8
0
10
1.005827
20
0.803465
0
VERTEX
8
0
10
1.331024
20
0.803465
0
VERTEX
8
0
10
1.381024
20
0.753465
0
VERTEX
8
0
10
1.381024
20
0.392835
0
VERTEX
8
0
10
1.331024
20
0.342835
0
VERTEX
8
0
10
0.906024
20
0.342835
0
VERTEX
8
0
10
0.856024
20
0.392835
0
VERTEX
8
0
10
0.856024
20
1.017835
0
VERTEX
8
0
10
0.906024
20
1.067835
0
VERTEX
8
0
10
1.481024
20
1.067835
0
VERTEX
8
0
10
1.531024
20
1.017835
0
VERTEX
8
0
10
1.531024
20
-0.730394
0
VERTEX
8
0
10
1.394803
20
-0.866614
0
SEQEND
8
0
0
POLYLINE
8
0
66
1
40
0.030000
41
0.030000
0
VERTEX
8
0
10
0.705827
20
0.609764
0
VERTEX
8
0
10
0.705826
20
0.609763
0
VERTEX
8
0
10
0.581024
20
0.609763
0
VERTEX
8
0
10
0.581023
20
0.609764
0
VERTEX
8
0
10
0.515276
20
0.609764
0
SEQEND
8
0
0
POLYLINE
8
0
66
1
40
0.030000
41
0.030000
0
VERTEX
8
0
10
0.705827
20
0.509764
0
VERTEX
8
0
10
0.556024
20
0.509764
0
VERTEX
8
0
10
0.554449
20
0.511339
0
VERTEX
8
0
10
-0.081575
20
0.511339
0
SEQEND
8
0
0
POLYLINE
8
0
66
1
40
0.030000
41
0.030000
0
VERTEX
8
0
10
1.296378
20
0.609764
0
VERTEX
8
0
10
1.005827
20
0.609764
0
SEQEND
8
0
0
POLYLINE
8
0
66
1
40
0.030000
41
0.030000
0
VERTEX
8
0
10
1.001102
20
-0.866614
0
VERTEX
8
0
10
1.001102
20
-0.782165
0
VERTEX
8
0
10
1.051102
20
-0.732165
0
VERTEX
8
0
10
1.381024
20
-0.732165
0
VERTEX
8
0
10
1.431024
20
-0.682165
0
VERTEX
8
0
10
1.431024
20
0.792835
0
VERTEX
8
0
10
1.370393
20
0.853465
0
VERTEX
8
0
10
0.956024
20
0.853465
0
VERTEX
8
0
10
0.906024
20
0.803465
0
VERTEX
8
0
10
0.906024
20
0.509567
0
VERTEX
8
0
10
1.005827
20
0.409764
0
VERTEX
8
0
10
1.005827
20
0.409764
0
SEQEND
8
0
0
POLYLINE
8
0
66
1
40
0.030000
41
0.030000
0
VERTEX
8
0
10
0.705827
20
0.216063
0
VERTEX
8
0
10
0.515276
20
0.216063
0
SEQEND
8
0
0
POLYLINE
8
0
66
1
40
0.030000
41
0.030000
0
VERTEX
8
0
10
-0.081575
20
0.116063
0
VERTEX
8
0
10
0.705827
20
0.116063
0
SEQEND
8
0
0
POLYLINE
8
0
66
1
40
0.030000
41
0.030000
0
VERTEX
8
0
10
1.296378
20
0.216063
0
VERTEX
8
0
10
1.005827
20
0.216063
0
SEQEND
8
0
0
POLYLINE
8
0
66
1
40
0.030000
41
0.030000
0
VERTEX
8
0
10
1.005827
20
0.016063
0
VERTEX
8
0
10
1.005827
20
0.016063
0
VERTEX
8
0
10
1.106024
20
-0.084133
0
VERTEX
8
0
10
1.106024
20
-0.632165
0
VERTEX
8
0
10
1.056024
20
-0.682165
0
VERTEX
8
0
10
0.681024
20
-0.682165
0
VERTEX
8
0
10
0.607402
20
-0.755787
0
VERTEX
8
0
10
0.607402
20
-0.866614
0
SEQEND
8
0
0
POLYLINE
8
0
66
1
40
0.030000
41
0.030000
0
VERTEX
8
0
10
0.515276
20
-0.177638
0
VERTEX
8
0
10
0.705827
20
-0.177638
0
SEQEND
8
0
0
POLYLINE
8
0
66
1
40
0.030000
41
0.030000
0
VERTEX
8
0
10
-0.081575
20
-0.277638
0
VERTEX
8
0
10
0.705827
20
-0.277638
0
SEQEND
8
0
0
POLYLINE
8
0
66
1
40
0.030000
41
0.030000
0
VERTEX
8
0
10
1.005827
20
-0.177638
0
VERTEX
8
0
10
0.931024
20
-0.102835
0
VERTEX
8
0
10
0.931024
20
0.066063
0
VERTEX
8
0
10
1.052677
20
0.066063
0
VERTEX
8
0
10
1.296378
20
-0.177638
0
SEQEND
8
0
0
POLYLINE
8
0
66
1
40
0.030000
41
0.030000
0
VERTEX
8
0
10
1.005827
20
-0.377637
0
VERTEX
8
0
10
1.005827
20
-0.377638
0
VERTEX
8
0
10
0.864744
20
-0.518720
0
VERTEX
8
0
10
0.281024
20
-0.518720
0
VERTEX
8
0
10
0.213701
20
-0.586043
0
VERTEX
8
0
10
0.213701
20
-0.866614
0
SEQEND
8
0
0
POLYLINE
8
0
66
1
40
0.030000
41
0.030000
0
VERTEX
8
0
10
1.656024
20
-0.932165
0
VERTEX
8
0
10
1.681024
20
-0.957165
0
VERTEX
8
0
10
1.681024
20
-1.267795
0
VERTEX
8
0
10
1.590079
20
-1.358740
0
SEQEND
8
0
0
POLYLINE
8
0
66
1
40
0.030000
41
0.030000
0
VERTEX
8
0
10
1.294803
20
-0.866614
0
VERTEX
8
0
10
1.294803
20
-0.932165
0
VERTEX
8
0
10
1.656024
20
-0.932165
0
SEQEND
8
0
0
POLYLINE
8
0
66
1
40
0.030000
41
0.030000
0
VERTEX
8
0
10
1.696378
20
-0.177638
0
VERTEX
8
0
10
1.696378
20
-0.857165
0
VERTEX
8
0
10
1.656024
20
-0.897520
0
VERTEX
8
0
10
1.656024
20
-0.932165
0
SEQEND
8
0
0
POLYLINE
8
0
66
1
40
0.030000
41
0.030000
0
VERTEX
8
0
10
1.294803
20
-0.866614
0
VERTEX
8
0
10
1.294803
20
-0.782165
0
VERTEX
8
0
10
1.131024
20
-0.782165
0
VERTEX
8
0
10
1.081024
20
-0.832165
0
VERTEX
8
0
10
1.081024
20
-0.932165
0
VERTEX
8
0
10
1.031024
20
-0.982165
0
VERTEX
8
0
10
0.901102
20
-0.982165
0
VERTEX
8
0
10
0.901102
20
-0.866614
0
SEQEND
8
0
0
POLYLINE
8
0
66
1
40
0.030000
41
0.030000
0
VERTEX
8
0
10
1.696378
20
0.609764
0
VERTEX
8
0
10
1.696378
20
1.003465
0
SEQEND
8
0
0
POLYLINE
8
0
66
1
40
0.030000
41
0.030000
0
VERTEX
8
0
10
1.696378
20
0.216063
0
VERTEX
8
0
10
1.696378
20
-0.177638
0
SEQEND
8
0
0
POLYLINE
8
0
66
1
40
0.030000
41
0.030000
0
VERTEX
8
0
10
1.696378
20
0.609764
0
VERTEX
8
0
10
1.696378
20
0.216063
0
SEQEND
8
0
0
POLYLINE
8
0
66
1
40
0.030000
41
0.030000
0
VERTEX
8
0
10
0.507402
20
-0.866614
0
VERTEX
8
0
10
0.507402
20
-0.782165
0
VERTEX
8
0
10
0.331024
20
-0.782165
0
VERTEX
8
0
10
0.281024
20
-0.832165
0
VERTEX
8
0
10
0.281024
20
-0.932165
0
VERTEX
8
0
10
0.231024
20
-0.982165
0
VERTEX
8
0
10
0.113701
20
-0.982165
0
VERTEX
8
0
10
0.113701
20
-0.866614
0
SEQEND
8
0
0
POLYLINE
8
0
66
1
40
0.030000
41
0.030000
0
VERTEX
8
0
10
0.901102
20
-0.866614
0
VERTEX
8
0
10
0.901102
20
-0.782165
0
VERTEX
8
0
10
0.731024
20
-0.782165
0
VERTEX
8
0
10
0.681024
20
-0.832165
0
VERTEX
8
0
10
0.681024
20
-0.932165
0
VERTEX
8
0
10
0.631024
20
-0.982165
0
VERTEX
8
0
10
0.507402
20
-0.982165
0
VERTEX
8
0
10
0.507402
20
-0.866614
0
SEQEND
8
0
0
POLYLINE
8
0
66
1
40
0.030000
41
0.030000
0
VERTEX
8
0
10
0.115276
20
1.003465
0
VERTEX
8
0
10
0.281024
20
1.003465
0
VERTEX
8
0
10
0.445394
20
1.167835
0
VERTEX
8
0
10
0.706024
20
1.167835
0
VERTEX
8
0
10
0.756024
20
1.117835
0
VERTEX
8
0
10
0.756024
20
0.717835
0
VERTEX
8
0
10
0.731024
20
0.692835
0
SEQEND
8
0
0
POLYLINE
8
0
66
1
40
0.030000
41
0.030000
0
VERTEX
8
0
10
0.731024
20
0.317835
0
VERTEX
8
0
10
0.756024
20
0.292835
0
VERTEX
8
0
10
0.756024
20
-0.057165
0
VERTEX
8
0
10
0.706024
20
-0.107165
0
VERTEX
8
0
10
0.185748
20
-0.107165
0
VERTEX
8
0
10
0.115276
20
-0.177638
0
SEQEND
8
0
0
POLYLINE
8
0
66
1
40
0.030000
41
0.030000
0
VERTEX
8
0
10
0.731024
20
0.317835
0
VERTEX
8
0
10
0.217047
20
0.317835
0
VERTEX
8
0
10
0.115276
20
0.216063
0
SEQEND
8
0
0
POLYLINE
8
0
66
1
40
0.030000
41
0.030000
0
VERTEX
8
0
10
0.731024
20
0.692835
0
VERTEX
8
0
10
0.198346
20
0.692835
0
VERTEX
8
0
10
0.115276
20
0.609764
0
SEQEND
8
0
0
POLYLINE
8
0
66
1
40
0.030000
41
0.030000
0
VERTEX
8
0
10
0.731024
20
0.317835
0
VERTEX
8
0
10
0.756024
20
0.342835
0
VERTEX
8
0
10
0.756024
20
0.667835
0
VERTEX
8
0
10
0.731024
20
0.692835
0
SEQEND
8
0
0
POLYLINE
8
0
66
1
40
0.030000
41
0.030000
0
VERTEX
8
0
10
0.115276
20
1.003465
0
VERTEX
8
0
10
0.115276
20
1.298740
0
SEQEND
8
0
0
POLYLINE
8
0
66
1
40
0.030000
41
0.030000
0
VERTEX
8
0
10
1.196378
20
-1.358740
0
VERTEX
8
0
10
1.194803
20
-1.357165
0
VERTEX
8
0
10
1.194803
20
-0.866614
0
SEQEND
8
0
0
POLYLINE
8
0
66
1
40
0.030000
41
0.030000
0
VERTEX
8
0
10
0.802677
20
-1.358740
0
VERTEX
8
0
10
0.801102
20
-1.357165
0
VERTEX
8
0
10
0.801102
20
-0.866614
0
SEQEND
8
0
0
POLYLINE
8
0
66
1
40
0.030000
41
0.030000
0
VERTEX
8
0
10
0.408976
20
-1.358740
0
VERTEX
8
0
10
0.407402
20
-1.357165
0
VERTEX
8
0
10
0.407402
20
-0.866614
0
SEQEND
8
0
0
POLYLINE
8
0
66
1
40
0.030000
41
0.030000
0
VERTEX
8
0
10
0.015276
20
-1.358740
0
VERTEX
8
0
10
0.015276
20
-1.207165
0
VERTEX
8
0
10
0.013701
20
-1.205591
0
VERTEX
8
0
10
0.013701
20
-0.866614
0
SEQEND
8
0
0
POLYLINE
8
0
66
1
40
0.030000
41
0.030000
0
VERTEX
8
0
10
-0.081575
20
1.103465
0
VERTEX
8
0
10
-0.943976
20
1.103465
0
VERTEX
8
0
10
-0.993976
20
1.053465
0
VERTEX
8
0
10
-0.993976
20
0.792835
0
VERTEX
8
0
10
-1.218976
20
0.567835
0
VERTEX
8
0
10
-1.218976
20
0.417835
0
VERTEX
8
0
10
-1.118976
20
0.317835
0
SEQEND
8
0
0
POLYLINE
8
0
66
1
40
0.030000
41
0.030000
0
VERTEX
8
0
10
-0.665827
20
0.019213
0
VERTEX
8
0
10
-0.793976
20
0.019213
0
VERTEX
8
0
10
-0.870354
20
-0.057165
0
VERTEX
8
0
10
-1.093976
20
-0.057165
0
VERTEX
8
0
10
-1.143976
20
-0.007165
0
VERTEX
8
0
10
-1.143976
20
0.292835
0
VERTEX
8
0
10
-1.118976
20
0.292835
0
VERTEX
8
0
10
-1.118976
20
0.317835
0
SEQEND
8
0
0
POLYLINE
8
0
66
1
40
0.030000
41
0.030000
0
VERTEX
8
0
10
-0.665827
20
0.412913
0
VERTEX
8
0
10
-0.568976
20
0.316063
0
VERTEX
8
0
10
-0.081575
20
0.316063
0
SEQEND
8
0
0
POLYLINE
8
0
66
1
40
0.030000
41
0.030000
0
VERTEX
8
0
10
-0.665827
20
0.806614
0
VERTEX
8
0
10
-0.518976
20
0.806614
0
VERTEX
8
0
10
-0.423701
20
0.711339
0
VERTEX
8
0
10
-0.081575
20
0.711339
0
SEQEND
8
0
0
POLYLINE
8
0
66
1
40
0.030000
41
0.030000
0
VERTEX
8
0
10
-0.665827
20
0.412913
0
VERTEX
8
0
10
-0.793976
20
0.412913
0
VERTEX
8
0
10
-0.889055
20
0.317835
0
VERTEX
8
0
10
-1.118976
20
0.317835
0
SEQEND
8
0
0
POLYLINE
8
0
66
1
40
0.030000
41
0.030000
0
VERTEX
8
0
10
-0.640827
20
-0.102638
0
VERTEX
8
0
10
-0.665827
20
-0.127638
0
VERTEX
8
0
10
-0.665827
20
-0.374488
0
SEQEND
8
0
0
POLYLINE
8
0
66
1
40
0.030000
41
0.030000
0
VERTEX
8
0
10
-0.665827
20
0.019213
0
VERTEX
8
0
10
-0.665827
20
-0.000787
0
VERTEX
8
0
10
-0.680827
20
-0.015787
0
VERTEX
8
0
10
-0.680827
20
-0.077638
0
VERTEX
8
0
10
-0.665827
20
-0.077638
0
VERTEX
8
0
10
-0.640827
20
-0.102638
0
VERTEX
8
0
10
-0.615827
20
-0.077638
0
VERTEX
8
0
10
-0.081575
20
-0.077638
0
SEQEND
8
0
0
POLYLINE
8
0
66
1
40
0.030000
41
0.030000
0
VERTEX
8
0
10
-0.665827
20
0.412913
0
VERTEX
8
0
10
-0.665827
20
0.806614
0
SEQEND
8
0
0
POLYLINE
8
0
66
1
40
0.030000
41
0.030000
0
VERTEX
8
0
10
-0.081575
20
1.103465
0
VERTEX
8
0
10
-0.081575
20
1.298740
0
SEQEND
8
0
0
POLYLINE
8
0
66
1
40
0.030000
41
0.030000
0
VERTEX
8
0
10
-1.059528
20
1.003465
0
VERTEX
8
0
10
-1.065827
20
0.997165
0
VERTEX
8
0
10
-1.065827
20
0.806614
0
SEQEND
8
0
0
POLYLINE
8
0
66
1
40
0.030000
41
0.030000
0
VERTEX
8
0
10
-1.059528
20
1.003465
0
VERTEX
8
0
10
-1.059528
20
1.317835
0
VERTEX
8
0
10
-1.009528
20
1.367835
0
VERTEX
8
0
10
-0.043976
20
1.367835
0
VERTEX
8
0
10
0.006024
20
1.317835
0
VERTEX
8
0
10
0.006024
20
1.091063
0
VERTEX
8
0
10
-0.081575
20
1.003465
0
SEQEND
8
0
0
POLYLINE
8
0
66
1
40
0.030000
41
0.030000
0
VERTEX
8
0
10
-1.059528
20
0.609764
0
VERTEX
8
0
10
-0.943976
20
0.609764
0
VERTEX
8
0
10
-0.891934
20
0.661806
0
VERTEX
8
0
10
-0.891934
20
0.817835
0
VERTEX
8
0
10
-0.841934
20
0.867835
0
VERTEX
8
0
10
-0.268976
20
0.867835
0
VERTEX
8
0
10
-0.193976
20
0.792835
0
VERTEX
8
0
10
-0.043976
20
0.792835
0
VERTEX
8
0
10
0.006024
20
0.742835
0
VERTEX
8
0
10
0.006024
20
0.611339
0
VERTEX
8
0
10
-0.081575
20
0.611339
0
SEQEND
8
0
0
POLYLINE
8
0
66
1
40
0.030000
41
0.030000
0
VERTEX
8
0
10
-1.059528
20
0.609764
0
VERTEX
8
0
10
-1.065827
20
0.603465
0
VERTEX
8
0
10
-1.065827
20
0.412913
0
SEQEND
8
0
0
POLYLINE
8
0
66
1
40
0.030000
41
0.030000
0
VERTEX
8
0
10
-1.059528
20
0.216063
0
VERTEX
8
0
10
-1.065827
20
0.209764
0
VERTEX
8
0
10
-1.065827
20
0.019213
0
SEQEND
8
0
0
POLYLINE
8
0
66
1
40
0.030000
41
0.030000
0
VERTEX
8
0
10
-1.059528
20
0.216063
0
VERTEX
8
0
10
-0.081575
20
0.216063
0
SEQEND
8
0
0
POLYLINE
8
0
66
1
40
0.030000
41
0.030000
0
VERTEX
8
0
10
-1.065827
20
-0.374488
0
VERTEX
8
0
10
-0.933150
20
-0.507165
0
VERTEX
8
0
10
-0.411102
20
-0.507165
0
VERTEX
8
0
10
-0.081575
20
-0.177638
0
SEQEND
8
0
0
POLYLINE
8
0
66
1
40
0.030000
41
0.030000
0
VERTEX
8
0
10
-1.065827
20
-0.374488
0
VERTEX
8
0
10
-1.059528
20
-0.368189
0
VERTEX
8
0
10
-1.059528
20
-0.177638
0
SEQEND
8
0
0
POLYLINE
8
0
66
1
40
0.030000
41
0.030000
0
VERTEX
8
0
10
-1.656378
20
1.003465
0
VERTEX
8
0
10
-1.459528
20
1.003465
0
SEQEND
8
0
0
POLYLINE
8
0
66
1
40
0.030000
41
0.030000
0
VERTEX
8
0
10
-1.656378
20
0.609764
0
VERTEX
8
0
10
-1.459528
20
0.609764
0
SEQEND
8
0
0
POLYLINE
8
0
66
1
40
0.030000
41
0.030000
0
VERTEX
8
0
10
-1.656378
20
0.216063
0
VERTEX
8
0
10
-1.459528
20
0.216063
0
SEQEND
8
0
0
POLYLINE
8
0
66
1
40
0.030000
41
0.030000
0
VERTEX
8
0
10
-1.656378
20
-0.177638
0
VERTEX
8
0
10
-1.459528
20
-0.177638
0
SEQEND
8
0
0
INSERT
8
0
2
EPAD
10
1.590079
20
-1.358740
41
0.080000
42
0.080000
0
CIRCLE
8
0
10
1.590079
20
-1.358740
40
0.025000
0
INSERT
8
0
2
EPAD
10
1.196378
20
-1.358740
41
0.080000
42
0.080000
0
CIRCLE
8
0
10
1.196378
20
-1.358740
40
0.025000
0
INSERT
8
0
2
EPAD
10
0.802677
20
-1.358740
41
0.080000
42
0.080000
0
CIRCLE
8
0
10
0.802677
20
-1.358740
40
0.025000
0
INSERT
8
0
2
EPAD
10
0.408976
20
-1.358740
41
0.080000
42
0.080000
0
CIRCLE
8
0
10
0.408976
20
-1.358740
40
0.025000
0
INSERT
8
0
2
EPAD
10
0.015276
20
-1.358740
41
0.080000
42
0.080000
0
CIRCLE
8
0
10
0.015276
20
-1.358740
40
0.025000
0
INSERT
8
0
2
EPAD
10
1.296378
20
1.003465
41
0.070000
42
0.070000
0
CIRCLE
8
0
10
1.296378
20
1.003465
40
0.025000
0
INSERT
8
0
2
EPAD
10
1.696378
20
1.003465
41
0.070000
42
0.070000
0
CIRCLE
8
0
10
1.696378
20
1.003465
40
0.025000
0
INSERT
8
0
2
EPAD
10
1.296378
20
0.609764
41
0.070000
42
0.070000
0
CIRCLE
8
0
10
1.296378
20
0.609764
40
0.025000
0
INSERT
8
0
2
EPAD
10
1.696378
20
0.609764
41
0.070000
42
0.070000
0
CIRCLE
8
0
10
1.696378
20
0.609764
40
0.025000
0
INSERT
8
0
2
EPAD
10
1.296378
20
0.216063
41
0.070000
42
0.070000
0
CIRCLE
8
0
10
1.296378
20
0.216063
40
0.025000
0
INSERT
8
0
2
EPAD
10
1.696378
20
0.216063
41
0.070000
42
0.070000
0
CIRCLE
8
0
10
1.696378
20
0.216063
40
0.025000
0
INSERT
8
0
2
EPAD
10
1.296378
20
-0.177638
41
0.070000
42
0.070000
0
CIRCLE
8
0
10
1.296378
20
-0.177638
40
0.025000
0
INSERT
8
0
2
EPAD
10
1.696378
20
-0.177638
41
0.070000
42
0.070000
0
CIRCLE
8
0
10
1.696378
20
-0.177638
40
0.025000
0
INSERT
8
0
2
RPAD
10
1.194803
20
-0.866614
41
0.080000
42
0.080000
50
0.000000
0
CIRCLE
8
0
10
1.194803
20
-0.866614
40
0.025000
0
INSERT
8
0
2
RPAD
10
1.294803
20
-0.866614
41
0.080000
42
0.080000
50
0.000000
0
CIRCLE
8
0
10
1.294803
20
-0.866614
40
0.025000
0
INSERT
8
0
2
RPAD
10
1.394803
20
-0.866614
41
0.080000
42
0.080000
50
0.000000
0
CIRCLE
8
0
10
1.394803
20
-0.866614
40
0.025000
0
INSERT
8
0
2
RPAD
10
0.801102
20
-0.866614
41
0.080000
42
0.080000
50
0.000000
0
CIRCLE
8
0
10
0.801102
20
-0.866614
40
0.025000
0
INSERT
8
0
2
RPAD
10
0.901102
20
-0.866614
41
0.080000
42
0.080000
50
0.000000
0
CIRCLE
8
0
10
0.901102
20
-0.866614
40
0.025000
0
INSERT
8
0
2
RPAD
10
1.001102
20
-0.866614
41
0.080000
42
0.080000
50
0.000000
0
CIRCLE
8
0
10
1.001102
20
-0.866614
40
0.025000
0
INSERT
8
0
2
RPAD
10
0.407402
20
-0.866614
41
0.080000
42
0.080000
50
0.000000
0
CIRCLE
8
0
10
0.407402
20
-0.866614
40
0.025000
0
INSERT
8
0
2
RPAD
10
0.507402
20
-0.866614
41
0.080000
42
0.080000
50
0.000000
0
CIRCLE
8
0
10
0.507402
20
-0.866614
40
0.025000
0
INSERT
8
0
2
RPAD
10
0.607402
20
-0.866614
41
0.080000
42
0.080000
50
0.000000
0
CIRCLE
8
0
10
0.607402
20
-0.866614
40
0.025000
0
INSERT
8
0
2
RPAD
10
0.013701
20
-0.866614
41
0.080000
42
0.080000
50
0.000000
0
CIRCLE
8
0
10
0.013701
20
-0.866614
40
0.025000
0
INSERT
8
0
2
RPAD
10
0.113701
20
-0.866614
41
0.080000
42
0.080000
50
0.000000
0
CIRCLE
8
0
10
0.113701
20
-0.866614
40
0.025000
0
INSERT
8
0
2
RPAD
10
0.213701
20
-0.866614
41
0.080000
42
0.080000
50
0.000000
0
CIRCLE
8
0
10
0.213701
20
-0.866614
40
0.025000
0
INSERT
8
0
2
RPAD
10
0.705827
20
1.003465
41
0.050000
42
0.050000
50
-90.000000
0
CIRCLE
8
0
10
0.705827
20
1.003465
40
0.030000
0
INSERT
8
0
2
EPAD
10
0.705827
20
0.903465
41
0.050000
42
0.050000
0
CIRCLE
8
0
10
0.705827
20
0.903465
40
0.030000
0
INSERT
8
0
2
EPAD
10
0.705827
20
0.803465
41
0.050000
42
0.050000
0
CIRCLE
8
0
10
0.705827
20
0.803465
40
0.030000
0
INSERT
8
0
2
EPAD
10
1.005827
20
0.803465
41
0.050000
42
0.050000
0
CIRCLE
8
0
10
1.005827
20
0.803465
40
0.030000
0
INSERT
8
0
2
EPAD
10
1.005827
20
0.903465
41
0.050000
42
0.050000
0
CIRCLE
8
0
10
1.005827
20
0.903465
40
0.030000
0
INSERT
8
0
2
EPAD
10
1.005827
20
1.003465
41
0.050000
42
0.050000
0
CIRCLE
8
0
10
1.005827
20
1.003465
40
0.030000
0
INSERT
8
0
2
RPAD
10
0.705827
20
0.609764
41
0.050000
42
0.050000
50
-90.000000
0
CIRCLE
8
0
10
0.705827
20
0.609764
40
0.030000
0
INSERT
8
0
2
EPAD
10
0.705827
20
0.509764
41
0.050000
42
0.050000
0
CIRCLE
8
0
10
0.705827
20
0.509764
40
0.030000
0
INSERT
8
0
2
EPAD
10
0.705827
20
0.409764
41
0.050000
42
0.050000
0
CIRCLE
8
0
10
0.705827
20
0.409764
40
0.030000
0
INSERT
8
0
2
EPAD
10
1.005827
20
0.409764
41
0.050000
42
0.050000
0
CIRCLE
8
0
10
1.005827
20
0.409764
40
0.030000
0
INSERT
8
0
2
EPAD
10
1.005827
20
0.509764
41
0.050000
42
0.050000
0
CIRCLE
8
0
10
1.005827
20
0.509764
40
0.030000
0
INSERT
8
0
2
EPAD
10
1.005827
20
0.609764
41
0.050000
42
0.050000
0
CIRCLE
8
0
10
1.005827
20
0.609764
40
0.030000
0
INSERT
8
0
2
RPAD
10
0.705827
20
0.216063
41
0.050000
42
0.050000
50
-90.000000
0
CIRCLE
8
0
10
0.705827
20
0.216063
40
0.030000
0
INSERT
8
0
2
EPAD
10
0.705827
20
0.116063
41
0.050000
42
0.050000
0
CIRCLE
8
0
10
0.705827
20
0.116063
40
0.030000
0
INSERT
8
0
2
EPAD
10
0.705827
20
0.016063
41
0.050000
42
0.050000
0
CIRCLE
8
0
10
0.705827
20
0.016063
40
0.030000
0
INSERT
8
0
2
EPAD
10
1.005827
20
0.016063
41
0.050000
42
0.050000
0
CIRCLE
8
0
10
1.005827
20
0.016063
40
0.030000
0
INSERT
8
0
2
EPAD
10
1.005827
20
0.116063
41
0.050000
42
0.050000
0
CIRCLE
8
0
10
1.005827
20
0.116063
40
0.030000
0
INSERT
8
0
2
EPAD
10
1.005827
20
0.216063
41
0.050000
42
0.050000
0
CIRCLE
8
0
10
1.005827
20
0.216063
40
0.030000
0
INSERT
8
0
2
RPAD
10
0.705827
20
-0.177638
41
0.050000
42
0.050000
50
-90.000000
0
CIRCLE
8
0
10
0.705827
20
-0.177638
40
0.030000
0
INSERT
8
0
2
EPAD
10
0.705827
20
-0.277638
41
0.050000
42
0.050000
0
CIRCLE
8
0
10
0.705827
20
-0.277638
40
0.030000
0
INSERT
8
0
2
EPAD
10
0.705827
20
-0.377638
41
0.050000
42
0.050000
0
CIRCLE
8
0
10
0.705827
20
-0.377638
40
0.030000
0
INSERT
8
0
2
EPAD
10
1.005827
20
-0.377638
41
0.050000
42
0.050000
0
CIRCLE
8
0
10
1.005827
20
-0.377638
40
0.030000
0
INSERT
8
0
2
EPAD
10
1.005827
20
-0.277638
41
0.050000
42
0.050000
0
CIRCLE
8
0
10
1.005827
20
-0.277638
40
0.030000
0
INSERT
8
0
2
EPAD
10
1.005827
20
-0.177638
41
0.050000
42
0.050000
0
CIRCLE
8
0
10
1.005827
20
-0.177638
40
0.030000
0
INSERT
8
0
2
EPAD
10
0.115276
20
1.003465
41
0.070000
42
0.070000
0
CIRCLE
8
0
10
0.115276
20
1.003465
40
0.025000
0
INSERT
8
0
2
EPAD
10
0.515276
20
1.003465
41
0.070000
42
0.070000
0
CIRCLE
8
0
10
0.515276
20
1.003465
40
0.025000
0
INSERT
8
0
2
EPAD
10
0.115276
20
0.609764
41
0.070000
42
0.070000
0
CIRCLE
8
0
10
0.115276
20
0.609764
40
0.025000
0
INSERT
8
0
2
EPAD
10
0.515276
20
0.609764
41
0.070000
42
0.070000
0
CIRCLE
8
0
10
0.515276
20
0.609764
40
0.025000
0
INSERT
8
0
2
EPAD
10
0.115276
20
0.216063
41
0.070000
42
0.070000
0
CIRCLE
8
0
10
0.115276
20
0.216063
40
0.025000
0
INSERT
8
0
2
EPAD
10
0.515276
20
0.216063
41
0.070000
42
0.070000
0
CIRCLE
8
0
10
0.515276
20
0.216063
40
0.025000
0
INSERT
8
0
2
EPAD
10
0.115276
20
-0.177638
41
0.070000
42
0.070000
0
CIRCLE
8
0
10
0.115276
20
-0.177638
40
0.025000
0
INSERT
8
0
2
EPAD
10
0.515276
20
-0.177638
41
0.070000
42
0.070000
0
CIRCLE
8
0
10
0.515276
20
-0.177638
40
0.025000
0
INSERT
8
0
2
EPAD
10
0.115276
20
1.298740
41
0.080000
42
0.080000
0
CIRCLE
8
0
10
0.115276
20
1.298740
40
0.025000
0
INSERT
8
0
2
EPAD
10
-0.081575
20
1.298740
41
0.080000
42
0.080000
0
CIRCLE
8
0
10
-0.081575
20
1.298740
40
0.025000
0
INSERT
8
0
2
EPAD
10
-0.081575
20
0.903465
41
0.080000
42
0.080000
0
CIRCLE
8
0
10
-0.081575
20
0.903465
40
0.025000
0
INSERT
8
0
2
EPAD
10
-0.081575
20
1.103465
41
0.080000
42
0.080000
0
CIRCLE
8
0
10
-0.081575
20
1.103465
40
0.025000
0
INSERT
8
0
2
EPAD
10
-0.081575
20
1.003465
41
0.080000
42
0.080000
0
CIRCLE
8
0
10
-0.081575
20
1.003465
40
0.025000
0
INSERT
8
0
2
EPAD
10
-0.081575
20
0.511339
41
0.080000
42
0.080000
0
CIRCLE
8
0
10
-0.081575
20
0.511339
40
0.025000
0
INSERT
8
0
2
EPAD
10
-0.081575
20
0.711339
41
0.080000
42
0.080000
0
CIRCLE
8
0
10
-0.081575
20
0.711339
40
0.025000
0
INSERT
8
0
2
EPAD
10
-0.081575
20
0.611339
41
0.080000
42
0.080000
0
CIRCLE
8
0
10
-0.081575
20
0.611339
40
0.025000
0
INSERT
8
0
2
EPAD
10
-0.081575
20
0.116063
41
0.080000
42
0.080000
0
CIRCLE
8
0
10
-0.081575
20
0.116063
40
0.025000
0
INSERT
8
0
2
EPAD
10
-0.081575
20
0.316063
41
0.080000
42
0.080000
0
CIRCLE
8
0
10
-0.081575
20
0.316063
40
0.025000
0
INSERT
8
0
2
EPAD
10
-0.081575
20
0.216063
41
0.080000
42
0.080000
0
CIRCLE
8
0
10
-0.081575
20
0.216063
40
0.025000
0
INSERT
8
0
2
EPAD
10
-0.081575
20
-0.277638
41
0.080000
42
0.080000
0
CIRCLE
8
0
10
-0.081575
20
-0.277638
40
0.025000
0
INSERT
8
0
2
EPAD
10
-0.081575
20
-0.077638
41
0.080000
42
0.080000
0
CIRCLE
8
0
10
-0.081575
20
-0.077638
40
0.025000
0
INSERT
8
0
2
EPAD
10
-0.081575
20
-0.177638
41
0.080000
42
0.080000
0
CIRCLE
8
0
10
-0.081575
20
-0.177638
40
0.025000
0
INSERT
8
0
2
EPAD
10
-1.656378
20
1.003465
41
0.080000
42
0.080000
0
CIRCLE
8
0
10
-1.656378
20
1.003465
40
0.025000
0
INSERT
8
0
2
EPAD
10
-1.656378
20
0.609764
41
0.080000
42
0.080000
0
CIRCLE
8
0
10
-1.656378
20
0.609764
40
0.025000
0
INSERT
8
0
2
EPAD
10
-1.656378
20
0.216063
41
0.080000
42
0.080000
0
CIRCLE
8
0
10
-1.656378
20
0.216063
40
0.025000
0
INSERT
8
0
2
EPAD
10
-1.656378
20
-0.177638
41
0.080000
42
0.080000
0
CIRCLE
8
0
10
-1.656378
20
-0.177638
40
0.025000
0
INSERT
8
0
2
EPAD
10
-1.459528
20
1.003465
41
0.070000
42
0.070000
0
CIRCLE
8
0
10
-1.459528
20
1.003465
40
0.025000
0
INSERT
8
0
2
EPAD
10
-1.059528
20
1.003465
41
0.070000
42
0.070000
0
CIRCLE
8
0
10
-1.059528
20
1.003465
40
0.025000
0
INSERT
8
0
2
EPAD
10
-1.459528
20
0.609764
41
0.070000
42
0.070000
0
CIRCLE
8
0
10
-1.459528
20
0.609764
40
0.025000
0
INSERT
8
0
2
EPAD
10
-1.059528
20
0.609764
41
0.070000
42
0.070000
0
CIRCLE
8
0
10
-1.059528
20
0.609764
40
0.025000
0
INSERT
8
0
2
EPAD
10
-1.459528
20
0.216063
41
0.070000
42
0.070000
0
CIRCLE
8
0
10
-1.459528
20
0.216063
40
0.025000
0
INSERT
8
0
2
EPAD
10
-1.059528
20
0.216063
41
0.070000
42
0.070000
0
CIRCLE
8
0
10
-1.059528
20
0.216063
40
0.025000
0
INSERT
8
0
2
EPAD
10
-1.459528
20
-0.177638
41
0.070000
42
0.070000
0
CIRCLE
8
0
10
-1.459528
20
-0.177638
40
0.025000
0
INSERT
8
0
2
EPAD
10
-1.059528
20
-0.177638
41
0.070000
42
0.070000
0
CIRCLE
8
0
10
-1.059528
20
-0.177638
40
0.025000
0
INSERT
8
0
2
EPAD
10
-1.065827
20
0.412913
41
0.070000
42
0.070000
0
CIRCLE
8
0
10
-1.065827
20
0.412913
40
0.025000
0
INSERT
8
0
2
EPAD
10
-0.665827
20
0.412913
41
0.070000
42
0.070000
0
CIRCLE
8
0
10
-0.665827
20
0.412913
40
0.025000
0
INSERT
8
0
2
EPAD
10
-1.065827
20
0.019213
41
0.070000
42
0.070000
0
CIRCLE
8
0
10
-1.065827
20
0.019213
40
0.025000
0
INSERT
8
0
2
EPAD
10
-0.665827
20
0.019213
41
0.070000
42
0.070000
0
CIRCLE
8
0
10
-0.665827
20
0.019213
40
0.025000
0
INSERT
8
0
2
EPAD
10
-1.065827
20
-0.374488
41
0.070000
42
0.070000
0
CIRCLE
8
0
10
-1.065827
20
-0.374488
40
0.025000
0
INSERT
8
0
2
EPAD
10
-0.665827
20
-0.374488
41
0.070000
42
0.070000
0
CIRCLE
8
0
10
-0.665827
20
-0.374488
40
0.025000
0
INSERT
8
0
2
EPAD
10
-1.065827
20
0.806614
41
0.070000
42
0.070000
0
CIRCLE
8
0
10
-1.065827
20
0.806614
40
0.025000
0
INSERT
8
0
2
EPAD
10
-0.665827
20
0.806614
41
0.070000
42
0.070000
0
CIRCLE
8
0
10
-0.665827
20
0.806614
40
0.025000
0
CIRCLE
8
0
10
1.590079
20
-1.358740
40
0.050000
0
CIRCLE
8
0
10
1.590079
20
-1.358740
40
0.025000
0
TEXT
8
0
10
1.698079
20
-1.408740
40
0.048000
41
1.041667
50
90.000000
1
J2
0
CIRCLE
8
0
10
1.196378
20
-1.358740
40
0.050000
0
CIRCLE
8
0
10
1.196378
20
-1.358740
40
0.025000
0
TEXT
8
0
10
1.304378
20
-1.408740
40
0.048000
41
1.041667
50
90.000000
1
J3
0
CIRCLE
8
0
10
0.802677
20
-1.358740
40
0.050000
0
CIRCLE
8
0
10
0.802677
20
-1.358740
40
0.025000
0
TEXT
8
0
10
0.910677
20
-1.408740
40
0.048000
41
1.041667
50
90.000000
1
J4
0
CIRCLE
8
0
10
0.408976
20
-1.358740
40
0.050000
0
CIRCLE
8
0
10
0.408976
20
-1.358740
40
0.025000
0
TEXT
8
0
10
0.516976
20
-1.408740
40
0.048000
41
1.041667
50
90.000000
1
J5
0
CIRCLE
8
0
10
0.015276
20
-1.358740
40
0.050000
0
CIRCLE
8
0
10
0.015276
20
-1.358740
40
0.025000
0
TEXT
8
0
10
0.123276
20
-1.408740
40
0.048000
41
1.041667
50
90.000000
1
J6
0
POLYLINE
8
0
66
1
40
0.008000
41
0.008000
0
VERTEX
8
0
10
1.346378
20
1.003465
0
VERTEX
8
0
10
1.396378
20
1.003465
0
SEQEND
8
0
0
POLYLINE
8
0
66
1
40
0.008000
41
0.008000
0
VERTEX
8
0
10
1.396378
20
0.978465
0
VERTEX
8
0
10
1.596378
20
0.978465
0
VERTEX
8
0
10
1.596378
20
1.028465
0
VERTEX
8
0
10
1.396378
20
1.028465
0
VERTEX
8
0
10
1.396378
20
0.978465
0
SEQEND
8
0
0
POLYLINE
8
0
66
1
40
0.008000
41
0.008000
0
VERTEX
8
0
10
1.596378
20
1.003465
0
VERTEX
8
0
10
1.646378
20
1.003465
0
SEQEND
8
0
0
TEXT
8
0
10
1.446378
20
1.038465
40
0.048000
41
1.041667
1
R1
0
POLYLINE
8
0
66
1
40
0.008000
41
0.008000
0
VERTEX
8
0
10
1.346378
20
0.609764
0
VERTEX
8
0
10
1.396378
20
0.609764
0
SEQEND
8
0
0
POLYLINE
8
0
66
1
40
0.008000
41
0.008000
0
VERTEX
8
0
10
1.396378
20
0.584764
0
VERTEX
8
0
10
1.596378
20
0.584764
0
VERTEX
8
0
10
1.596378
20
0.634764
0
VERTEX
8
0
10
1.396378
20
0.634764
0
VERTEX
8
0
10
1.396378
20
0.584764
0
SEQEND
8
0
0
POLYLINE
8
0
66
1
40
0.008000
41
0.008000
0
VERTEX
8
0
10
1.596378
20
0.609764
0
VERTEX
8
0
10
1.646378
20
0.609764
0
SEQEND
8
0
0
TEXT
8
0
10
1.446378
20
0.644764
40
0.048000
41
1.041667
1
R2
0
POLYLINE
8
0
66
1
40
0.008000
41
0.008000
0
VERTEX
8
0
10
1.346378
20
0.216063
0
VERTEX
8
0
10
1.396378
20
0.216063
0
SEQEND
8
0
0
POLYLINE
8
0
66
1
40
0.008000
41
0.008000
0
VERTEX
8
0
10
1.396378
20
0.191063
0
VERTEX
8
0
10
1.596378
20
0.191063
0
VERTEX
8
0
10
1.596378
20
0.241063
0
VERTEX
8
0
10
1.396378
20
0.241063
0
VERTEX
8
0
10
1.396378
20
0.191063
0
SEQEND
8
0
0
POLYLINE
8
0
66
1
40
0.008000
41
0.008000
0
VERTEX
8
0
10
1.596378
20
0.216063
0
VERTEX
8
0
10
1.646378
20
0.216063
0
SEQEND
8
0
0
TEXT
8
0
10
1.446378
20
0.251063
40
0.048000
41
1.041667
1
R3
0
POLYLINE
8
0
66
1
40
0.008000
41
0.008000
0
VERTEX
8
0
10
1.346378
20
-0.177638
0
VERTEX
8
0
10
1.396378
20
-0.177638
0
SEQEND
8
0
0
POLYLINE
8
0
66
1
40
0.008000
41
0.008000
0
VERTEX
8
0
10
1.396378
20
-0.202638
0
VERTEX
8
0
10
1.596378
20
-0.202638
0
VERTEX
8
0
10
1.596378
20
-0.152638
0
VERTEX
8
0
10
1.396378
20
-0.152638
0
VERTEX
8
0
10
1.396378
20
-0.202638
0
SEQEND
8
0
0
POLYLINE
8
0
66
1
40
0.008000
41
0.008000
0
VERTEX
8
0
10
1.596378
20
-0.177638
0
VERTEX
8
0
10
1.646378
20
-0.177638
0
SEQEND
8
0
0
TEXT
8
0
10
1.446378
20
-0.142638
40
0.048000
41
1.041667
1
R4
0
POLYLINE
8
0
66
1
40
0.008000
41
0.008000
0
VERTEX
8
0
10
1.144803
20
-0.916614
0
VERTEX
8
0
10
1.444803
20
-0.916614
0
VERTEX
8
0
10
1.444803
20
-0.816614
0
VERTEX
8
0
10
1.144803
20
-0.816614
0
VERTEX
8
0
10
1.144803
20
-0.916614
0
SEQEND
8
0
0
POLYLINE
8
0
66
1
40
0.008000
41
0.008000
0
VERTEX
8
0
10
1.144803
20
-0.816614
0
VERTEX
8
0
10
1.144803
20
-0.766614
0
VERTEX
8
0
10
1.444803
20
-0.766614
0
VERTEX
8
0
10
1.444803
20
-0.816614
0
SEQEND
8
0
0
POLYLINE
8
0
66
1
40
0.008000
41
0.008000
0
VERTEX
8
0
10
1.144803
20
-0.816614
0
VERTEX
8
0
10
1.194803
20
-0.766614
0
SEQEND
8
0
0
POLYLINE
8
0
66
1
40
0.008000
41
0.008000
0
VERTEX
8
0
10
1.194803
20
-0.816614
0
VERTEX
8
0
10
1.244803
20
-0.766614
0
SEQEND
8
0
0
POLYLINE
8
0
66
1
40
0.008000
41
0.008000
0
VERTEX
8
0
10
1.244803
20
-0.816614
0
VERTEX
8
0
10
1.294803
20
-0.766614
0
SEQEND
8
0
0
POLYLINE
8
0
66
1
40
0.008000
41
0.008000
0
VERTEX
8
0
10
1.294803
20
-0.816614
0
VERTEX
8
0
10
1.344803
20
-0.766614
0
SEQEND
8
0
0
POLYLINE
8
0
66
1
40
0.008000
41
0.008000
0
VERTEX
8
0
10
1.344803
20
-0.816614
0
VERTEX
8
0
10
1.394803
20
-0.766614
0
SEQEND
8
0
0
POLYLINE
8
0
66
1
40
0.008000
41
0.008000
0
VERTEX
8
0
10
1.394803
20
-0.816614
0
VERTEX
8
0
10
1.444803
20
-0.766614
0
SEQEND
8
0
0
TEXT
8
0
10
1.244803
20
-0.756614
40
0.048000
41
1.041667
1
U1
0
POLYLINE
8
0
66
1
40
0.008000
41
0.008000
0
VERTEX
8
0
10
0.751102
20
-0.916614
0
VERTEX
8
0
10
1.051102
20
-0.916614
0
VERTEX
8
0
10
1.051102
20
-0.816614
0
VERTEX
8
0
10
0.751102
20
-0.816614
0
VERTEX
8
0
10
0.751102
20
-0.916614
0
SEQEND
8
0
0
POLYLINE
8
0
66
1
40
0.008000
41
0.008000
0
VERTEX
8
0
10
0.751102
20
-0.816614
0
VERTEX
8
0
10
0.751102
20
-0.766614
0
VERTEX
8
0
10
1.051102
20
-0.766614
0
VERTEX
8
0
10
1.051102
20
-0.816614
0
SEQEND
8
0
0
POLYLINE
8
0
66
1
40
0.008000
41
0.008000
0
VERTEX
8
0
10
0.751102
20
-0.816614
0
VERTEX
8
0
10
0.801102
20
-0.766614
0
SEQEND
8
0
0
POLYLINE
8
0
66
1
40
0.008000
41
0.008000
0
VERTEX
8
0
10
0.801102
20
-0.816614
0
VERTEX
8
0
10
0.851102
20
-0.766614
0
SEQEND
8
0
0
POLYLINE
8
0
66
1
40
0.008000
41
0.008000
0
VERTEX
8
0
10
0.851102
20
-0.816614
0
VERTEX
8
0
10
0.901102
20
-0.766614
0
SEQEND
8
0
0
POLYLINE
8
0
66
1
40
0.008000
41
0.008000
0
VERTEX
8
0
10
0.901102
20
-0.816614
0
VERTEX
8
0
10
0.951102
20
-0.766614
0
SEQEND
8
0
0
POLYLINE
8
0
66
1
40
0.008000
41
0.008000
0
VERTEX
8
0
10
0.951102
20
-0.816614
0
VERTEX
8
0
10
1.001102
20
-0.766614
0
SEQEND
8
0
0
POLYLINE
8
0
66
1
40
0.008000
41
0.008000
0
VERTEX
8
0
10
1.001102
20
-0.816614
0
VERTEX
8
0
10
1.051102
20
-0.766614
0
SEQEND
8
0
0
TEXT
8
0
10
0.851102
20
-0.756614
40
0.048000
41
1.041667
1
U2
0
POLYLINE
8
0
66
1
40
0.008000
41
0.008000
0
VERTEX
8
0
10
0.357402
20
-0.916614
0
VERTEX
8
0
10
0.657402
20
-0.916614
0
VERTEX
8
0
10
0.657402
20
-0.816614
0
VERTEX
8
0
10
0.357402
20
-0.816614
0
VERTEX
8
0
10
0.357402
20
-0.916614
0
SEQEND
8
0
0
POLYLINE
8
0
66
1
40
0.008000
41
0.008000
0
VERTEX
8
0
10
0.357402
20
-0.816614
0
VERTEX
8
0
10
0.357402
20
-0.766614
0
VERTEX
8
0
10
0.657402
20
-0.766614
0
VERTEX
8
0
10
0.657402
20
-0.816614
0
SEQEND
8
0
0
POLYLINE
8
0
66
1
40
0.008000
41
0.008000
0
VERTEX
8
0
10
0.357402
20
-0.816614
0
VERTEX
8
0
10
0.407402
20
-0.766614
0
SEQEND
8
0
0
POLYLINE
8
0
66
1
40
0.008000
41
0.008000
0
VERTEX
8
0
10
0.407402
20
-0.816614
0
VERTEX
8
0
10
0.457402
20
-0.766614
0
SEQEND
8
0
0
POLYLINE
8
0
66
1
40
0.008000
41
0.008000
0
VERTEX
8
0
10
0.457402
20
-0.816614
0
VERTEX
8
0
10
0.507402
20
-0.766614
0
SEQEND
8
0
0
POLYLINE
8
0
66
1
40
0.008000
41
0.008000
0
VERTEX
8
0
10
0.507402
20
-0.816614
0
VERTEX
8
0
10
0.557402
20
-0.766614
0
SEQEND
8
0
0
POLYLINE
8
0
66
1
40
0.008000
41
0.008000
0
VERTEX
8
0
10
0.557402
20
-0.816614
0
VERTEX
8
0
10
0.607402
20
-0.766614
0
SEQEND
8
0
0
POLYLINE
8
0
66
1
40
0.008000
41
0.008000
0
VERTEX
8
0
10
0.607402
20
-0.816614
0
VERTEX
8
0
10
0.657402
20
-0.766614
0
SEQEND
8
0
0
TEXT
8
0
10
0.457402
20
-0.756614
40
0.048000
41
1.041667
1
U3
0
POLYLINE
8
0
66
1
40
0.008000
41
0.008000
0
VERTEX
8
0
10
-0.036299
20
-0.916614
0
VERTEX
8
0
10
0.263701
20
-0.916614
0
VERTEX
8
0
10
0.263701
20
-0.816614
0
VERTEX
8
0
10
-0.036299
20
-0.816614
0
VERTEX
8
0
10
-0.036299
20
-0.916614
0
SEQEND
8
0
0
POLYLINE
8
0
66
1
40
0.008000
41
0.008000
0
VERTEX
8
0
10
-0.036299
20
-0.816614
0
VERTEX
8
0
10
-0.036299
20
-0.766614
0
VERTEX
8
0
10
0.263701
20
-0.766614
0
VERTEX
8
0
10
0.263701
20
-0.816614
0
SEQEND
8
0
0
POLYLINE
8
0
66
1
40
0.008000
41
0.008000
0
VERTEX
8
0
10
-0.036299
20
-0.816614
0
VERTEX
8
0
10
0.013701
20
-0.766614
0
SEQEND
8
0
0
POLYLINE
8
0
66
1
40
0.008000
41
0.008000
0
VERTEX
8
0
10
0.013701
20
-0.816614
0
VERTEX
8
0
10
0.063701
20
-0.766614
0
SEQEND
8
0
0
POLYLINE
8
0
66
1
40
0.008000
41
0.008000
0
VERTEX
8
0
10
0.063701
20
-0.816614
0
VERTEX
8
0
10
0.113701
20
-0.766614
0
SEQEND
8
0
0
POLYLINE
8
0
66
1
40
0.008000
41
0.008000
0
VERTEX
8
0
10
0.113701
20
-0.816614
0
VERTEX
8
0
10
0.163701
20
-0.766614
0
SEQEND
8
0
0
POLYLINE
8
0
66
1
40
0.008000
41
0.008000
0
VERTEX
8
0
10
0.163701
20
-0.816614
0
VERTEX
8
0
10
0.213701
20
-0.766614
0
SEQEND
8
0
0
POLYLINE
8
0
66
1
40
0.008000
41
0.008000
0
VERTEX
8
0
10
0.213701
20
-0.816614
0
VERTEX
8
0
10
0.263701
20
-0.766614
0
SEQEND
8
0
0
TEXT
8
0
10
0.063701
20
-0.756614
40
0.048000
41
1.041667
1
U4
0
POLYLINE
8
0
66
1
40
0.008000
41
0.008000
0
VERTEX
8
0
10
0.755827
20
1.053465
0
VERTEX
8
0
10
0.805827
20
1.053465
0
SEQEND
8
0
0
POLYLINE
8
0
66
1
40
0.008000
41
0.008000
0
VERTEX
8
0
10
0.855827
20
1.003465
0
VERTEX
8
0
10
0.866014
20
1.004424
0
VERTEX
8
0
10
0.875452
20
1.007199
0
VERTEX
8
0
10
0.883952
20
1.011639
0
VERTEX
8
0
10
0.891327
20
1.017590
0
VERTEX
8
0
10
0.897389
20
1.024900
0
VERTEX
8
0
10
0.901952
20
1.033418
0
VERTEX
8
0
10
0.904827
20
1.042990
0
VERTEX
8
0
10
0.905827
20
1.053465
0
SEQEND
8
0
0
POLYLINE
8
0
66
1
40
0.008000
41
0.008000
0
VERTEX
8
0
10
0.855827
20
1.003465
0
VERTEX
8
0
10
0.845352
20
1.004424
0
VERTEX
8
0
10
0.835780
20
1.007199
0
VERTEX
8
0
10
0.827262
20
1.011639
0
VERTEX
8
0
10
0.819952
20
1.017590
0
VERTEX
8
0
10
0.814001
20
1.024900
0
VERTEX
8
0
10
0.809561
20
1.033418
0
VERTEX
8
0
10
0.806786
20
1.042990
0
VERTEX
8
0
10
0.805827
20
1.053465
0
SEQEND
8
0
0
POLYLINE
8
0
66
1
40
0.008000
41
0.008000
0
VERTEX
8
0
10
0.905827
20
1.053465
0
VERTEX
8
0
10
0.955827
20
1.053465
0
SEQEND
8
0
0
POLYLINE
8
0
66
1
40
0.008000
41
0.008000
0
VERTEX
8
0
10
0.755827
20
0.753465
0
VERTEX
8
0
10
0.955827
20
0.753465
0
SEQEND
8
0
0
POLYLINE
8
0
66
1
40
0.008000
41
0.008000
0
VERTEX
8
0
10
0.755827
20
1.053465
0
VERTEX
8
0
10
0.755827
20
0.753465
0
SEQEND
8
0
0
POLYLINE
8
0
66
1
40
0.008000
41
0.008000
0
VERTEX
8
0
10
0.955827
20
1.053465
0
VERTEX
8
0
10
0.955827
20
0.753465
0
SEQEND
8
0
0
TEXT
8
0
10
0.805827
20
1.063465
40
0.048000
41
1.041667
1
U5
0
POLYLINE
8
0
66
1
40
0.008000
41
0.008000
0
VERTEX
8
0
10
0.755827
20
0.659764
0
VERTEX
8
0
10
0.805827
20
0.659764
0
SEQEND
8
0
0
POLYLINE
8
0
66
1
40
0.008000
41
0.008000
0
VERTEX
8
0
10
0.855827
20
0.609764
0
VERTEX
8
0
10
0.866014
20
0.610723
0
VERTEX
8
0
10
0.875452
20
0.613498
0
VERTEX
8
0
10
0.883952
20
0.617938
0
VERTEX
8
0
10
0.891327
20
0.623889
0
VERTEX
8
0
10
0.897389
20
0.631199
0
VERTEX
8
0
10
0.901952
20
0.639717
0
VERTEX
8
0
10
0.904827
20
0.649289
0
VERTEX
8
0
10
0.905827
20
0.659764
0
SEQEND
8
0
0
POLYLINE
8
0
66
1
40
0.008000
41
0.008000
0
VERTEX
8
0
10
0.855827
20
0.609764
0
VERTEX
8
0
10
0.845352
20
0.610723
0
VERTEX
8
0
10
0.835780
20
0.613498
0
VERTEX
8
0
10
0.827262
20
0.617938
0
VERTEX
8
0
10
0.819952
20
0.623889
0
VERTEX
8
0
10
0.814001
20
0.631199
0
VERTEX
8
0
10
0.809561
20
0.639717
0
VERTEX
8
0
10
0.806786
20
0.649289
0
VERTEX
8
0
10
0.805827
20
0.659764
0
SEQEND
8
0
0
POLYLINE
8
0
66
1
40
0.008000
41
0.008000
0
VERTEX
8
0
10
0.905827
20
0.659764
0
VERTEX
8
0
10
0.955827
20
0.659764
0
SEQEND
8
0
0
POLYLINE
8
0
66
1
40
0.008000
41
0.008000
0
VERTEX
8
0
10
0.755827
20
0.359764
0
VERTEX
8
0
10
0.955827
20
0.359764
0
SEQEND
8
0
0
POLYLINE
8
0
66
1
40
0.008000
41
0.008000
0
VERTEX
8
0
10
0.755827
20
0.659764
0
VERTEX
8
0
10
0.755827
20
0.359764
0
SEQEND
8
0
0
POLYLINE
8
0
66
1
40
0.008000
41
0.008000
0
VERTEX
8
0
10
0.955827
20
0.659764
0
VERTEX
8
0
10
0.955827
20
0.359764
0
SEQEND
8
0
0
TEXT
8
0
10
0.805827
20
0.669764
40
0.048000
41
1.041667
1
U6
0
POLYLINE
8
0
66
1
40
0.008000
41
0.008000
0
VERTEX
8
0
10
0.755827
20
0.266063
0
VERTEX
8
0
10
0.805827
20
0.266063
0
SEQEND
8
0
0
POLYLINE
8
0
66
1
40
0.008000
41
0.008000
0
VERTEX
8
0
10
0.855827
20
0.216063
0
VERTEX
8
0
10
0.866014
20
0.217022
0
VERTEX
8
0
10
0.875452
20
0.219797
0
VERTEX
8
0
10
0.883952
20
0.224237
0
VERTEX
8
0
10
0.891327
20
0.230188
0
VERTEX
8
0
10
0.897389
20
0.237498
0
VERTEX
8
0
10
0.901952
20
0.246016
0
VERTEX
8
0
10
0.904827
20
0.255588
0
VERTEX
8
0
10
0.905827
20
0.266063
0
SEQEND
8
0
0
POLYLINE
8
0
66
1
40
0.008000
41
0.008000
0
VERTEX
8
0
10
0.855827
20
0.216063
0
VERTEX
8
0
10
0.845352
20
0.217022
0
VERTEX
8
0
10
0.835780
20
0.219797
0
VERTEX
8
0
10
0.827262
20
0.224237
0
VERTEX
8
0
10
0.819952
20
0.230188
0
VERTEX
8
0
10
0.814001
20
0.237498
0
VERTEX
8
0
10
0.809561
20
0.246016
0
VERTEX
8
0
10
0.806786
20
0.255588
0
VERTEX
8
0
10
0.805827
20
0.266063
0
SEQEND
8
0
0
POLYLINE
8
0
66
1
40
0.008000
41
0.008000
0
VERTEX
8
0
10
0.905827
20
0.266063
0
VERTEX
8
0
10
0.955827
20
0.266063
0
SEQEND
8
0
0
POLYLINE
8
0
66
1
40
0.008000
41
0.008000
0
VERTEX
8
0
10
0.755827
20
-0.033937
0
VERTEX
8
0
10
0.955827
20
-0.033937
0
SEQEND
8
0
0
POLYLINE
8
0
66
1
40
0.008000
41
0.008000
0
VERTEX
8
0
10
0.755827
20
0.266063
0
VERTEX
8
0
10
0.755827
20
-0.033937
0
SEQEND
8
0
0
POLYLINE
8
0
66
1
40
0.008000
41
0.008000
0
VERTEX
8
0
10
0.955827
20
0.266063
0
VERTEX
8
0
10
0.955827
20
-0.033937
0
SEQEND
8
0
0
TEXT
8
0
10
0.805827
20
0.276063
40
0.048000
41
1.041667
1
U7
0
POLYLINE
8
0
66
1
40
0.008000
41
0.008000
0
VERTEX
8
0
10
0.755827
20
-0.127638
0
VERTEX
8
0
10
0.805827
20
-0.127638
0
SEQEND
8
0
0
POLYLINE
8
0
66
1
40
0.008000
41
0.008000
0
VERTEX
8
0
10
0.855827
20
-0.177638
0
VERTEX
8
0
10
0.866014
20
-0.176679
0
VERTEX
8
0
10
0.875452
20
-0.173904
0
VERTEX
8
0
10
0.883952
20
-0.169464
0
VERTEX
8
0
10
0.891327
20
-0.163513
0
VERTEX
8
0
10
0.897389
20
-0.156202
0
VERTEX
8
0
10
0.901952
20
-0.147685
0
VERTEX
8
0
10
0.904827
20
-0.138113
0
VERTEX
8
0
10
0.905827
20
-0.127638
0
SEQEND
8
0
0
POLYLINE
8
0
66
1
40
0.008000
41
0.008000
0
VERTEX
8
0
10
0.855827
20
-0.177638
0
VERTEX
8
0
10
0.845352
20
-0.176679
0
VERTEX
8
0
10
0.835780
20
-0.173904
0
VERTEX
8
0
10
0.827262
20
-0.169464
0
VERTEX
8
0
10
0.819952
20
-0.163513
0
VERTEX
8
0
10
0.814001
20
-0.156202
0
VERTEX
8
0
10
0.809561
20
-0.147685
0
VERTEX
8
0
10
0.806786
20
-0.138113
0
VERTEX
8
0
10
0.805827
20
-0.127638
0
SEQEND
8
0
0
POLYLINE
8
0
66
1
40
0.008000
41
0.008000
0
VERTEX
8
0
10
0.905827
20
-0.127638
0
VERTEX
8
0
10
0.955827
20
-0.127638
0
SEQEND
8
0
0
POLYLINE
8
0
66
1
40
0.008000
41
0.008000
0
VERTEX
8
0
10
0.755827
20
-0.427638
0
VERTEX
8
0
10
0.955827
20
-0.427638
0
SEQEND
8
0
0
POLYLINE
8
0
66
1
40
0.008000
41
0.008000
0
VERTEX
8
0
10
0.755827
20
-0.127638
0
VERTEX
8
0
10
0.755827
20
-0.427638
0
SEQEND
8
0
0
POLYLINE
8
0
66
1
40
0.008000
41
0.008000
0
VERTEX
8
0
10
0.955827
20
-0.127638
0
VERTEX
8
0
10
0.955827
20
-0.427638
0
SEQEND
8
0
0
TEXT
8
0
10
0.805827
20
-0.117638
40
0.048000
41
1.041667
1
U8
0
POLYLINE
8
0
66
1
40
0.008000
41
0.008000
0
VERTEX
8
0
10
0.165276
20
1.003465
0
VERTEX
8
0
10
0.215276
20
1.003465
0
SEQEND
8
0
0
POLYLINE
8
0
66
1
40
0.008000
41
0.008000
0
VERTEX
8
0
10
0.215276
20
0.978465
0
VERTEX
8
0
10
0.415276
20
0.978465
0
VERTEX
8
0
10
0.415276
20
1.028465
0
VERTEX
8
0
10
0.215276
20
1.028465
0
VERTEX
8
0
10
0.215276
20
0.978465
0
SEQEND
8
0
0
POLYLINE
8
0
66
1
40
0.008000
41
0.008000
0
VERTEX
8
0
10
0.415276
20
1.003465
0
VERTEX
8
0
10
0.465276
20
1.003465
0
SEQEND
8
0
0
TEXT
8
0
10
0.265276
20
1.038465
40
0.048000
41
1.041667
1
R5
0
POLYLINE
8
0
66
1
40
0.008000
41
0.008000
0
VERTEX
8
0
10
0.165276
20
0.609764
0
VERTEX
8
0
10
0.215276
20
0.609764
0
SEQEND
8
0
0
POLYLINE
8
0
66
1
40
0.008000
41
0.008000
0
VERTEX
8
0
10
0.215276
20
0.584764
0
VERTEX
8
0
10
0.415276
20
0.584764
0
VERTEX
8
0
10
0.415276
20
0.634764
0
VERTEX
8
0
10
0.215276
20
0.634764
0
VERTEX
8
0
10
0.215276
20
0.584764
0
SEQEND
8
0
0
POLYLINE
8
0
66
1
40
0.008000
41
0.008000
0
VERTEX
8
0
10
0.415276
20
0.609764
0
VERTEX
8
0
10
0.465276
20
0.609764
0
SEQEND
8
0
0
TEXT
8
0
10
0.265276
20
0.644764
40
0.048000
41
1.041667
1
R6
0
POLYLINE
8
0
66
1
40
0.008000
41
0.008000
0
VERTEX
8
0
10
0.165276
20
0.216063
0
VERTEX
8
0
10
0.215276
20
0.216063
0
SEQEND
8
0
0
POLYLINE
8
0
66
1
40
0.008000
41
0.008000
0
VERTEX
8
0
10
0.215276
20
0.191063
0
VERTEX
8
0
10
0.415276
20
0.191063
0
VERTEX
8
0
10
0.415276
20
0.241063
0
VERTEX
8
0
10
0.215276
20
0.241063
0
VERTEX
8
0
10
0.215276
20
0.191063
0
SEQEND
8
0
0
POLYLINE
8
0
66
1
40
0.008000
41
0.008000
0
VERTEX
8
0
10
0.415276
20
0.216063
0
VERTEX
8
0
10
0.465276
20
0.216063
0
SEQEND
8
0
0
TEXT
8
0
10
0.265276
20
0.251063
40
0.048000
41
1.041667
1
R7
0
POLYLINE
8
0
66
1
40
0.008000
41
0.008000
0
VERTEX
8
0
10
0.165276
20
-0.177638
0
VERTEX
8
0
10
0.215276
20
-0.177638
0
SEQEND
8
0
0
POLYLINE
8
0
66
1
40
0.008000
41
0.008000
0
VERTEX
8
0
10
0.215276
20
-0.202638
0
VERTEX
8
0
10
0.415276
20
-0.202638
0
VERTEX
8
0
10
0.415276
20
-0.152638
0
VERTEX
8
0
10
0.215276
20
-0.152638
0
VERTEX
8
0
10
0.215276
20
-0.202638
0
SEQEND
8
0
0
POLYLINE
8
0
66
1
40
0.008000
41
0.008000
0
VERTEX
8
0
10
0.415276
20
-0.177638
0
VERTEX
8
0
10
0.465276
20
-0.177638
0
SEQEND
8
0
0
TEXT
8
0
10
0.265276
20
-0.142638
40
0.048000
41
1.041667
1
R8
0
CIRCLE
8
0
10
0.115276
20
1.298740
40
0.050000
0
CIRCLE
8
0
10
0.115276
20
1.298740
40
0.025000
0
TEXT
8
0
10
0.065276
20
1.358740
40
0.048000
41
1.041667
1
J1
0
CIRCLE
8
0
10
-0.081575
20
1.298740
40
0.050000
0
CIRCLE
8
0
10
-0.081575
20
1.298740
40
0.025000
0
TEXT
8
0
10
-0.156575
20
1.358740
40
0.048000
41
1.041667
1
J11
0
POLYLINE
8
0
66
1
40
0.008000
41
0.008000
0
VERTEX
8
0
10
-0.156575
20
0.853465
0
VERTEX
8
0
10
-0.006575
20
0.853465
0
VERTEX
8
0
10
-0.006575
20
1.153465
0
VERTEX
8
0
10
-0.156575
20
1.153465
0
VERTEX
8
0
10
-0.156575
20
0.853465
0
SEQEND
8
0
0
CIRCLE
8
0
10
-0.306575
20
1.003465
40
0.150000
0
POLYLINE
8
0
66
1
40
0.008000
41
0.008000
0
VERTEX
8
0
10
-0.206575
20
1.003465
0
VERTEX
8
0
10
-0.406575
20
1.003465
0
SEQEND
8
0
0
POLYLINE
8
0
66
1
40
0.008000
41
0.008000
0
VERTEX
8
0
10
-0.306575
20
0.953465
0
VERTEX
8
0
10
-0.306575
20
1.053465
0
SEQEND
8
0
0
TEXT
8
0
10
-0.466575
20
0.928465
40
0.048000
41
1.041667
50
90.000000
1
RV1
0
POLYLINE
8
0
66
1
40
0.008000
41
0.008000
0
VERTEX
8
0
10
-0.156575
20
0.461339
0
VERTEX
8
0
10
-0.006575
20
0.461339
0
VERTEX
8
0
10
-0.006575
20
0.761339
0
VERTEX
8
0
10
-0.156575
20
0.761339
0
VERTEX
8
0
10
-0.156575
20
0.461339
0
SEQEND
8
0
0
CIRCLE
8
0
10
-0.306575
20
0.611339
40
0.150000
0
POLYLINE
8
0
66
1
40
0.008000
41
0.008000
0
VERTEX
8
0
10
-0.206575
20
0.611339
0
VERTEX
8
0
10
-0.406575
20
0.611339
0
SEQEND
8
0
0
POLYLINE
8
0
66
1
40
0.008000
41
0.008000
0
VERTEX
8
0
10
-0.306575
20
0.561339
0
VERTEX
8
0
10
-0.306575
20
0.661339
0
SEQEND
8
0
0
TEXT
8
0
10
-0.466575
20
0.536339
40
0.048000
41
1.041667
50
90.000000
1
RV2
0
POLYLINE
8
0
66
1
40
0.008000
41
0.008000
0
VERTEX
8
0
10
-0.156575
20
0.066063
0
VERTEX
8
0
10
-0.006575
20
0.066063
0
VERTEX
8
0
10
-0.006575
20
0.366063
0
VERTEX
8
0
10
-0.156575
20
0.366063
0
VERTEX
8
0
10
-0.156575
20
0.066063
0
SEQEND
8
0
0
CIRCLE
8
0
10
-0.306575
20
0.216063
40
0.150000
0
POLYLINE
8
0
66
1
40
0.008000
41
0.008000
0
VERTEX
8
0
10
-0.206575
20
0.216063
0
VERTEX
8
0
10
-0.406575
20
0.216063
0
SEQEND
8
0
0
POLYLINE
8
0
66
1
40
0.008000
41
0.008000
0
VERTEX
8
0
10
-0.306575
20
0.166063
0
VERTEX
8
0
10
-0.306575
20
0.266063
0
SEQEND
8
0
0
TEXT
8
0
10
-0.466575
20
0.141063
40
0.048000
41
1.041667
50
90.000000
1
RV3
0
POLYLINE
8
0
66
1
40
0.008000
41
0.008000
0
VERTEX
8
0
10
-0.156575
20
-0.327638
0
VERTEX
8
0
10
-0.006575
20
-0.327638
0
VERTEX
8
0
10
-0.006575
20
-0.027638
0
VERTEX
8
0
10
-0.156575
20
-0.027638
0
VERTEX
8
0
10
-0.156575
20
-0.327638
0
SEQEND
8
0
0
CIRCLE
8
0
10
-0.306575
20
-0.177638
40
0.150000
0
POLYLINE
8
0
66
1
40
0.008000
41
0.008000
0
VERTEX
8
0
10
-0.206575
20
-0.177638
0
VERTEX
8
0
10
-0.406575
20
-0.177638
0
SEQEND
8
0
0
POLYLINE
8
0
66
1
40
0.008000
41
0.008000
0
VERTEX
8
0
10
-0.306575
20
-0.227638
0
VERTEX
8
0
10
-0.306575
20
-0.127638
0
SEQEND
8
0
0
TEXT
8
0
10
-0.466575
20
-0.252638
40
0.048000
41
1.041667
50
90.000000
1
RV4
0
CIRCLE
8
0
10
-1.656378
20
1.003465
40
0.050000
0
CIRCLE
8
0
10
-1.656378
20
1.003465
40
0.025000
0
TEXT
8
0
10
-1.706378
20
1.063465
40
0.048000
41
1.041667
1
J7
0
CIRCLE
8
0
10
-1.656378
20
0.609764
40
0.050000
0
CIRCLE
8
0
10
-1.656378
20
0.609764
40
0.025000
0
TEXT
8
0
10
-1.706378
20
0.669764
40
0.048000
41
1.041667
1
J8
0
CIRCLE
8
0
10
-1.656378
20
0.216063
40
0.050000
0
CIRCLE
8
0
10
-1.656378
20
0.216063
40
0.025000
0
TEXT
8
0
10
-1.706378
20
0.276063
40
0.048000
41
1.041667
1
J9
0
CIRCLE
8
0
10
-1.656378
20
-0.177638
40
0.050000
0
CIRCLE
8
0
10
-1.656378
20
-0.177638
40
0.025000
0
TEXT
8
0
10
-1.731378
20
-0.117638
40
0.048000
41
1.041667
1
J10
0
POLYLINE
8
0
66
1
40
0.008000
41
0.008000
0
VERTEX
8
0
10
-1.409528
20
1.003465
0
VERTEX
8
0
10
-1.359528
20
1.003465
0
SEQEND
8
0
0
POLYLINE
8
0
66
1
40
0.008000
41
0.008000
0
VERTEX
8
0
10
-1.359528
20
0.978465
0
VERTEX
8
0
10
-1.159528
20
0.978465
0
VERTEX
8
0
10
-1.159528
20
1.028465
0
VERTEX
8
0
10
-1.359528
20
1.028465
0
VERTEX
8
0
10
-1.359528
20
0.978465
0
SEQEND
8
0
0
POLYLINE
8
0
66
1
40
0.008000
41
0.008000
0
VERTEX
8
0
10
-1.159528
20
1.003465
0
VERTEX
8
0
10
-1.109528
20
1.003465
0
SEQEND
8
0
0
TEXT
8
0
10
-1.309528
20
1.038465
40
0.048000
41
1.041667
1
R9
0
POLYLINE
8
0
66
1
40
0.008000
41
0.008000
0
VERTEX
8
0
10
-1.409528
20
0.609764
0
VERTEX
8
0
10
-1.359528
20
0.609764
0
SEQEND
8
0
0
POLYLINE
8
0
66
1
40
0.008000
41
0.008000
0
VERTEX
8
0
10
-1.359528
20
0.584764
0
VERTEX
8
0
10
-1.159528
20
0.584764
0
VERTEX
8
0
10
-1.159528
20
0.634764
0
VERTEX
8
0
10
-1.359528
20
0.634764
0
VERTEX
8
0
10
-1.359528
20
0.584764
0
SEQEND
8
0
0
POLYLINE
8
0
66
1
40
0.008000
41
0.008000
0
VERTEX
8
0
10
-1.159528
20
0.609764
0
VERTEX
8
0
10
-1.109528
20
0.609764
0
SEQEND
8
0
0
TEXT
8
0
10
-1.334528
20
0.644764
40
0.048000
41
1.041667
1
R10
0
POLYLINE
8
0
66
1
40
0.008000
41
0.008000
0
VERTEX
8
0
10
-1.409528
20
0.216063
0
VERTEX
8
0
10
-1.359528
20
0.216063
0
SEQEND
8
0
0
POLYLINE
8
0
66
1
40
0.008000
41
0.008000
0
VERTEX
8
0
10
-1.359528
20
0.191063
0
VERTEX
8
0
10
-1.159528
20
0.191063
0
VERTEX
8
0
10
-1.159528
20
0.241063
0
VERTEX
8
0
10
-1.359528
20
0.241063
0
VERTEX
8
0
10
-1.359528
20
0.191063
0
SEQEND
8
0
0
POLYLINE
8
0
66
1
40
0.008000
41
0.008000
0
VERTEX
8
0
10
-1.159528
20
0.216063
0
VERTEX
8
0
10
-1.109528
20
0.216063
0
SEQEND
8
0
0
TEXT
8
0
10
-1.334528
20
0.251063
40
0.048000
41
1.041667
1
R11
0
POLYLINE
8
0
66
1
40
0.008000
41
0.008000
0
VERTEX
8
0
10
-1.409528
20
-0.177638
0
VERTEX
8
0
10
-1.359528
20
-0.177638
0
SEQEND
8
0
0
POLYLINE
8
0
66
1
40
0.008000
41
0.008000
0
VERTEX
8
0
10
-1.359528
20
-0.202638
0
VERTEX
8
0
10
-1.159528
20
-0.202638
0
VERTEX
8
0
10
-1.159528
20
-0.152638
0
VERTEX
8
0
10
-1.359528
20
-0.152638
0
VERTEX
8
0
10
-1.359528
20
-0.202638
0
SEQEND
8
0
0
POLYLINE
8
0
66
1
40
0.008000
41
0.008000
0
VERTEX
8
0
10
-1.159528
20
-0.177638
0
VERTEX
8
0
10
-1.109528
20
-0.177638
0
SEQEND
8
0
0
TEXT
8
0
10
-1.334528
20
-0.142638
40
0.048000
41
1.041667
1
R12
0
POLYLINE
8
0
66
1
40
0.008000
41
0.008000
0
VERTEX
8
0
10
-1.015827
20
0.412913
0
VERTEX
8
0
10
-0.965827
20
0.412913
0
SEQEND
8
0
0
POLYLINE
8
0
66
1
40
0.008000
41
0.008000
0
VERTEX
8
0
10
-0.965827
20
0.387913
0
VERTEX
8
0
10
-0.765827
20
0.387913
0
VERTEX
8
0
10
-0.765827
20
0.437913
0
VERTEX
8
0
10
-0.965827
20
0.437913
0
VERTEX
8
0
10
-0.965827
20
0.387913
0
SEQEND
8
0
0
POLYLINE
8
0
66
1
40
0.008000
41
0.008000
0
VERTEX
8
0
10
-0.765827
20
0.412913
0
VERTEX
8
0
10
-0.715827
20
0.412913
0
SEQEND
8
0
0
TEXT
8
0
10
-0.940827
20
0.447913
40
0.048000
41
1.041667
1
R14
0
POLYLINE
8
0
66
1
40
0.008000
41
0.008000
0
VERTEX
8
0
10
-1.015827
20
0.019213
0
VERTEX
8
0
10
-0.965827
20
0.019213
0
SEQEND
8
0
0
POLYLINE
8
0
66
1
40
0.008000
41
0.008000
0
VERTEX
8
0
10
-0.965827
20
-0.005787
0
VERTEX
8
0
10
-0.765827
20
-0.005787
0
VERTEX
8
0
10
-0.765827
20
0.044213
0
VERTEX
8
0
10
-0.965827
20
0.044213
0
VERTEX
8
0
10
-0.965827
20
-0.005787
0
SEQEND
8
0
0
POLYLINE
8
0
66
1
40
0.008000
41
0.008000
0
VERTEX
8
0
10
-0.765827
20
0.019213
0
VERTEX
8
0
10
-0.715827
20
0.019213
0
SEQEND
8
0
0
TEXT
8
0
10
-0.940827
20
0.054213
40
0.048000
41
1.041667
1
R15
0
POLYLINE
8
0
66
1
40
0.008000
41
0.008000
0
VERTEX
8
0
10
-1.015827
20
-0.374488
0
VERTEX
8
0
10
-0.965827
20
-0.374488
0
SEQEND
8
0
0
POLYLINE
8
0
66
1
40
0.008000
41
0.008000
0
VERTEX
8
0
10
-0.965827
20
-0.399488
0
VERTEX
8
0
10
-0.765827
20
-0.399488
0
VERTEX
8
0
10
-0.765827
20
-0.349488
0
VERTEX
8
0
10
-0.965827
20
-0.349488
0
VERTEX
8
0
10
-0.965827
20
-0.399488
0
SEQEND
8
0
0
POLYLINE
8
0
66
1
40
0.008000
41
0.008000
0
VERTEX
8
0
10
-0.765827
20
-0.374488
0
VERTEX
8
0
10
-0.715827
20
-0.374488
0
SEQEND
8
0
0
TEXT
8
0
10
-0.940827
20
-0.339488
40
0.048000
41
1.041667
1
R16
0
POLYLINE
8
0
66
1
40
0.008000
41
0.008000
0
VERTEX
8
0
10
-1.015827
20
0.806614
0
VERTEX
8
0
10
-0.965827
20
0.806614
0
SEQEND
8
0
0
POLYLINE
8
0
66
1
40
0.008000
41
0.008000
0
VERTEX
8
0
10
-0.965827
20
0.781614
0
VERTEX
8
0
10
-0.765827
20
0.781614
0
VERTEX
8
0
10
-0.765827
20
0.831614
0
VERTEX
8
0
10
-0.965827
20
0.831614
0
VERTEX
8
0
10
-0.965827
20
0.781614
0
SEQEND
8
0
0
POLYLINE
8
0
66
1
40
0.008000
41
0.008000
0
VERTEX
8
0
10
-0.765827
20
0.806614
0
VERTEX
8
0
10
-0.715827
20
0.806614
0
SEQEND
8
0
0
TEXT
8
0
10
-0.940827
20
0.841614
40
0.048000
41
1.041667
1
R17
0
ENDSEC
0
EOF

